<?xml version="1.0" encoding="utf-8"?>
<!-- Generator: Adobe Illustrator 26.5.0, SVG Export Plug-In . SVG Version: 6.00 Build 0)  -->
<svg version="1.1" id="Layer_1" xmlns="http://www.w3.org/2000/svg" xmlns:xlink="http://www.w3.org/1999/xlink" x="0px" y="0px"
	 viewBox="0 0 601.4 211" style="enable-background:new 0 0 601.4 211;" xml:space="preserve">
<style type="text/css">
	.st0{fill:#231F20;}
	.st1{fill:none;stroke:#231F20;stroke-width:2.2553;stroke-linecap:square;stroke-miterlimit:10;}
	.st2{fill:none;stroke:#231F20;stroke-width:2.2553;stroke-miterlimit:10;}
	.st3{fill:#D2B43A;}
</style>
<g>
	<path class="st0" d="M444.5,113c0,11.7-3.2,26.5-28.8,26.5c-25.5,0-28.8-14.8-28.8-26.5V73.5h6.7V113c0,16.9,10.9,20.4,22.1,20.4
		c11.2,0,22.1-3.5,22.1-20.4V73.5h6.7L444.5,113L444.5,113z"/>
	<path class="st0" d="M466.9,73.5H502c10.9,0,20.9,3.9,20.9,17.4c0,6.9-4.2,13.7-12.6,15.6v0.2c9.1,1.4,11,7.3,11.5,17.9
		c0.2,4.1,0.7,11.9,2.3,13.3h-7.2c-1.2-1.4-1.6-6.1-1.7-13.2c-0.2-11.4-4.5-15.2-15.6-15.2h-25.9v28.3h-6.7L466.9,73.5L466.9,73.5z
		 M473.5,103.5h28.2c7.3,0,13.9-2.7,13.9-12.5c0-9.5-7.1-11.3-13.3-11.3h-28.9V103.5z"/>
	<path class="st1" d="M344.6,23.7c3.9,0.4,8.9,1.2,14.3,3c7.4,2.4,12.2,5.5,18.6,9.6c8.8,5.7,15.1,11.1,24.8,19.3
		c10.5,9,13.9,14.5,21.9,17c2.7,0.9,14.1,4.5,17.7-0.3c4.4-6-1.6-12.5-6.4-14.8c-12-5.6-30.4-6.3-44,2.6c-3,2-17.7,11.5-16.4,23.5
		c0.9,7.9,8.3,12.9,10.6,14.5c18.1,12.3,47.3,6.8,74.6,1.6c9.8-1.9,20.9-4.4,26,1.3c2.7,3,4,8.6,1.9,12.5c0,0-2,3.9-8.4,5.5"/>
	<path d="M257,211L342.9,8.9c0,0,3.1-7.7,7.4-6.3c4.2,1.4,1.7,8.5,1.7,8.5S258,211.2,257,211 M348.7,6.4
		c-4.4-1.3-16.5,31.5-14.3,32.5C336.8,40,352.7,7.6,348.7,6.4z"/>
	<path class="st2" d="M167.4,45.7c-0.2,0.5,6.3,9.8,19.1,13.8c15.8,4.9,29.7,2.7,37.5,0.5c6.5-1.8,18-5.8,29.9-14.5
		c7.7-5.6,15.1-11.2,18.3-21.2c1.1-3.4,3.5-11.1-0.6-17c-4.8-6.8-14.6-6.2-16.7-6.1C246,1.7,237.2,7.1,233,16
		c-0.5,1.1-5.6,12.3,0.6,23.5C237.8,47,245.1,50.8,251,52c5.7,1.2,10.4,0.1,15.8-1.6c16-4.9,22.9-10,38.9-17.4
		c19.7-9,27.3-9.5,29.9-9.6c1.2-0.1,4-0.1,7.9,0.2"/>
	<path class="st0" d="M66.1,113.4c-1.4,14.4-13.3,26.2-31.8,26.2C13.3,139.5,0,126.4,0,105.7C0,91,9.1,71.9,34.3,71.9
		c14.1,0,29.3,6.4,31.3,23.4h-6.7C56.9,83,45.9,78,34.3,78c-16,0-27.1,8.9-27.1,27.7c0,14.3,7.5,27.7,27.1,27.7
		c15.3,0,22.9-7.8,25.2-20L66.1,113.4L66.1,113.4z"/>
	<path class="st0" d="M117.3,71.9c18.3,0,35,11.1,35,33.8s-16.7,33.8-35,33.8s-35-11.1-35-33.8C82.3,83,99,71.9,117.3,71.9z
		 M117.3,133.4c14.2,0,27.8-8.3,27.8-27.7c0-19.4-13.6-27.7-27.8-27.7c-14.2,0-27.8,8.3-27.8,27.7
		C89.5,125.1,103.1,133.4,117.3,133.4z"/>
	<path class="st0" d="M228.6,113c0,11.7-3.2,26.5-28.8,26.5S171,124.7,171,113V73.5h6.7V113c0,16.9,10.9,20.4,22.1,20.4
		c11.2,0,22.1-3.5,22.1-20.4V73.5h6.7V113z"/>
	<path class="st0" d="M269,79.6h-25.3v-6.1H301v6.1h-25.3v58.3H269L269,79.6L269,79.6z"/>
	<path class="st0" d="M355.8,118.3h-33.9l-8.8,19.6h-7.2l29.2-64.4h7.8l29.2,64.4h-7.8L355.8,118.3z M338.9,80.2l-14.3,32h28.5
		L338.9,80.2z"/>
	<path class="st0" d="M585,118.3h-33.9l-8.8,19.6h-7.2l29.2-64.4h7.8l29.2,64.4h-7.8L585,118.3z M568.2,80.2l-14.3,32h28.5
		L568.2,80.2z"/>
	<g>
		<path class="st0" d="M194.3,58.1c0,0.6-0.1,1.1-0.5,1.5c-0.3,0.4-0.5,0.8-0.5,1.2c0,0.4,0,0.9,0.1,1.3s0.3,0.8,0.1,1.4
			c-0.7,0.7-1.3,0.9-1.9,1.5c-0.6,0.6-0.8,1.1-1.2,1.8c-0.3,0.4-1,0.6-1.6,0.9s-1.2,0.7-1.9,1s-1.3,0.6-1.9,0.8
			c-0.6,0.2-1.2,0.3-1.7,0.3c-1.6,0-3.3-0.5-4.9-1.5c-1.6-1-3.1-2.2-4.6-3.6c-1.4-1.4-2.8-2.9-4.1-4.5c-1.3-1.6-2.6-2.8-3.6-3.8
			l-1.2-0.7c0.4,0.7,1.2,1.4,2,2.5c0.8,1.1,1.2,2.5,1.6,4c0.4,1.3,0.7,2.7,1.1,4s0.6,2.2,0.6,3c0,0.9-0.1,1.6-0.2,2.1
			c-0.1,0.5-0.3,0.8-0.6,1.1c-0.3,0.2-0.7,0.4-1.2,0.6c-0.5,0.1-1.2,0.5-2.2,0.6l-1.5-0.4l-1.2-0.6c-1.2-1-2.1-2-3.1-3
			c-1.3-1.3-1.6-2.2-2.5-3.5c-0.3-0.7-0.5-1.1-0.7-1.6c-0.2-0.5-0.3-0.9-0.3-1.4c0-0.2,0-0.4,0.1-0.8c0.1-0.3,0.2-0.7,0.3-1.1
			c0.1-0.4,0.2-0.7,0.4-1.1c0.1-0.3,0.2-0.6,0.3-0.8L160,58l0.1-0.4c0.4-0.4,0.8-0.7,1.4-1c0.5-0.3,1-0.5,1.6-0.7l-0.9-0.5
			c-1.4,0.4-2.4,0.8-3,1.2s-1,0.8-1.3,1.2c-0.3,0.4-0.5,0.8-0.7,1.3c-0.2,0.4-0.7,0.9-1.4,1.5l-1.4-0.5c-1.1-1.7-2.3-3.4-3.4-5.1
			c-1.1-1.7-2.3-3.3-3.7-4.8c0,0-0.1-0.1-0.1-0.1c0,0-0.1-0.1-0.1-0.1l0.1-0.2h-0.3c-1.2-0.4-2.2-1-3-1.6c-0.8-0.7-1.5-1.4-2.1-2.2
			c-0.6-0.8-1.3-1.6-2-2.4c-0.7-0.8-1.4-1.6-2.3-2.2c0-0.3-0.2-0.7-0.4-1.2c-0.2-0.4-0.4-0.9-0.7-1.3s-0.5-0.9-0.8-1.3
			s-0.7-0.7-0.7-1.1l0.4-1.9L136,34c0.5,0.1,1.4,0.5,2.6,1.1s2.5,1.3,3.9,2.2c1.4,0.8,2.9,1.8,4.5,2.8c1.6,1,3.1,2,4.5,2.9
			c1.4,0.9,2.7,1.8,3.8,2.6c1.1,0.8,1.9,1.4,2.3,1.8l0.6-0.4c0-0.1,0-0.1,0.1-0.2c0,0,0.1-0.1,0.1-0.2c0-0.3-0.1-0.6-0.4-0.9
			s-0.4-0.6-0.4-0.9c0-0.2,0.1-0.4,0.3-0.5c-1-0.9-2-1.8-3-2.7c-1-0.9-2.2-1.6-3.4-2.2l-0.1-0.3c1.3,0.4,2.5,1.1,3.7,2.1
			c1.2,1,2.3,2,3.2,3l1.9-0.5c0.2-0.3,0.4-0.6,0.5-1c0.1-0.4,0.1-0.8,0.1-1.2c0-1.3-0.2-2.4-0.6-3.4c-0.4-1-1.2-1.7-2.6-2.1l0.4-0.5
			c0.7,0.6,1.4,1.3,2,1.9c0.6,0.7,1,1.5,1,2.5c0,0.7,0,1.4-0.1,2c-0.1,0.7-0.1,1.3-0.1,2c0,0.1,0,0.3,0.1,0.5s0.2,0.5,0.3,0.7
			s0.2,0.5,0.3,0.7c0.1,0.2,0.2,0.4,0.3,0.4c0.3-0.5,0.6-1.1,0.8-1.9s0.4-1.6,0.5-2.4c0.2-0.8,0.3-1.7,0.5-2.5
			c0.2-0.8,0.5-1.5,0.8-2.1c0.8-1.3,1.7-2.7,2.8-4.3c1.1-1.5,2.2-3.1,3.5-4.7c1.3-1.6,2.7-3.2,4.1-4.7c1.5-1.5,3-2.8,4.6-4
			c1.6-1.2,3.2-2.1,4.8-2.8c1.6-0.7,3.3-1.1,4.9-1.1c0.2,0,0.5,0,0.7,0c0.2,0,0.4,0,0.7,0c0.5,0.5,0.8,1.2,1.1,1.9s0.4,1.4,0.4,2.1
			c0,0.9-0.2,1.7-0.6,2.4c0.1,0.2,0.3,0.4,0.4,0.7c0.1,0.2,0.2,0.5,0.2,0.8c0,0.2-0.1,0.5-0.3,0.8c0.2,0.5,0.4,1,0.5,1.5
			c0.1,0.5,0.2,1.1,0.2,1.6c0,0.9-0.2,1.8-0.8,2.6l0.5,1.2c-0.3,0.6-0.4,1.1-0.4,1.7c0,0.6,0.1,1.1,0.4,1.5c0.3,0.4,0.4,0.8,0.4,1.2
			c0,0.2-0.1,0.4-0.2,0.6c0.4,0.5,0.6,1.1,0.6,1.7c0,0.9-0.4,1.6-1.2,2.2c-0.8,0.6-1.8,1.1-3.1,1.4c-1.3,0.4-2.6,0.7-4.1,1
			c-1.5,0.3-2.9,0.6-4.2,0.8c-1.4,0.2-2.5,0.5-3.5,0.8s-1.6,0.6-1.9,1c0.6,0,1.2-0.1,1.8-0.3c0.6-0.2,1.1-0.3,1.7-0.5
			c0.6-0.2,1.1-0.3,1.7-0.5c0.6-0.1,1.2-0.2,1.8-0.2c0.3,0,0.8,0,1.4,0.1c0.6,0.1,1.2,0.2,1.8,0.3c0.6,0.1,1.2,0.3,1.7,0.5
			s0.9,0.4,1.1,0.7c0.6,0,1,0.2,1.4,0.6c0.4,0.4,0.7,0.8,0.9,1.2s0.6,0.9,0.8,1.3c0.3,0.4,0.6,0.8,1.1,1.1c0.1,0.7,0.3,1.4,0.5,2.1
			s0.5,1.4,0.7,2.1s0.4,1.4,0.6,2.1C194.2,56.6,194.3,57.4,194.3,58.1z"/>
		<path class="st3" d="M138.9,40.6c-0.2,0-0.4-0.2-0.5-0.3s-0.3-0.3-0.5-0.3c-0.1,0-0.1,0-0.2,0.1c0,0.1-0.1,0.1-0.1,0.2v0.2
			c0.2,0.2,0.5,0.4,0.9,0.5c0.1-0.1,0.1-0.1,0.2-0.2C138.9,40.7,138.9,40.6,138.9,40.6z"/>
		<path class="st3" d="M141.3,39.9c-0.3-0.3-0.6-0.6-0.9-0.9c-0.3-0.3-0.6-0.6-0.9-0.9s-0.8-0.4-1.2-0.4H138v0.2
			c0,0.3,0.2,0.6,0.5,0.9c0.3,0.3,0.7,0.6,1.2,0.9c0.4,0.3,0.9,0.5,1.4,0.7c0.5,0.2,0.9,0.3,1.2,0.4l0.1-0.3
			C142,40.3,141.6,40.1,141.3,39.9z"/>
		<path class="st3" d="M141.5,43.7c0,0-0.1,0-0.2-0.1c-0.1,0-0.1-0.1-0.2-0.1c-0.1,0-0.2,0.1-0.3,0.2c0.1,0,0.1,0.1,0.2,0.1
			c0.1,0,0.1,0.1,0.2,0.1S141.4,43.9,141.5,43.7z"/>
		<path class="st3" d="M145.2,43.3c0-0.2-0.1-0.4-0.5-0.5c-0.3-0.1-0.6-0.2-1-0.3c-0.4-0.1-0.7-0.1-1-0.2c-0.3-0.1-0.5-0.2-0.5-0.3
			l-0.2,0.1c-0.1,0-0.3-0.1-0.5-0.1l-0.1,0.2l0.1,0.1l-0.1,0.1c0.2,0.4,0.4,0.8,0.7,1.1c0.3,0.3,0.6,0.5,1.2,0.5
			c0.3,0,0.6-0.1,0.8-0.2s0.5-0.2,0.8-0.2c0.2,0,0.3,0,0.4,0.1L145.2,43.3z"/>
		<path class="st3" d="M143.6,45.6l0.1-0.3l-0.1-0.2l0.1-0.1c-0.1-0.2-0.2-0.3-0.4-0.3c-0.1,0-0.2,0-0.3,0.1
			c-0.1,0.1-0.2,0.2-0.2,0.3c0,0.2,0.1,0.3,0.3,0.4C143.3,45.7,143.5,45.7,143.6,45.6L143.6,45.6L143.6,45.6z"/>
		<path class="st3" d="M145.4,41.2c-0.1-0.1-0.2-0.2-0.3-0.2c-0.1,0-0.2-0.1-0.2-0.2c0,0,0-0.1,0-0.1c0,0,0-0.1,0-0.1
			c0-0.2-0.2-0.4-0.6-0.4h-0.3c0.2,0.2,0.3,0.4,0.4,0.7c0.1,0.3,0.3,0.4,0.6,0.4C145.3,41.3,145.4,41.3,145.4,41.2z"/>
		<polygon class="st3" points="144.7,46.7 144.8,46.2 144.5,46.2 144.3,46.7 144.5,46.9 144.8,46.9 		"/>
		<path class="st3" d="M151.2,46.9c-0.2-0.1-0.3-0.2-0.5-0.4c-0.1-0.1-0.3-0.2-0.5-0.2h-0.2c-0.4-0.3-0.9-0.6-1.4-0.7
			c-0.5-0.2-0.9-0.3-1.1-0.5c-0.2,0-0.5-0.2-0.6-0.4c-0.2-0.2-0.4-0.3-0.6-0.3c-0.1,0-0.2,0.1-0.3,0.3S146,45,146,45.2
			c-0.1,0.2-0.1,0.5-0.1,0.7c0,0.2,0,0.4,0,0.5c0,0.6,0.1,1,0.4,1.3c0.2,0.3,0.5,0.6,0.8,0.7c0.3,0.2,0.5,0.3,0.8,0.4
			s0.4,0.2,0.4,0.4c0.2,0,0.5-0.1,0.8-0.3c0.3-0.2,0.6-0.4,0.9-0.6c0.3-0.2,0.6-0.5,0.8-0.7C150.9,47.4,151.1,47.1,151.2,46.9z"/>
		<path class="st3" d="M159.8,51.8l0.1-0.1c0-0.2-0.1-0.3-0.2-0.4s-0.2-0.2-0.3-0.3c-0.4-0.8-0.9-1.3-1.3-1.8s-0.9-0.8-1.4-1.1
			c-0.5-0.3-0.9-0.6-1.4-0.9s-0.9-0.8-1.4-1.3c-0.1,0-0.3-0.1-0.5-0.3c-0.2-0.2-0.5-0.4-0.8-0.6s-0.6-0.5-0.9-0.8
			c-0.3-0.2-0.6-0.5-0.9-0.7c-0.4,0-0.8-0.2-1.2-0.6c-0.3-0.4-0.6-0.6-0.8-0.6l-0.2,0.1c-0.2-0.1-0.4-0.2-0.5-0.2s-0.4,0-0.5-0.1
			c0.1,0.1,0.2,0.3,0.2,0.4s0,0.3,0,0.5c0,0.4,0,0.7,0.2,0.9s0.4,0.3,0.8,0.4c0.6,0.2,1.2,0.6,1.9,1.2s1.3,1.1,1.8,1.5
			c0.9,0.6,1.8,1.2,2.7,1.8s1.8,1.2,2.7,1.8c0.1,0.1,0.2,0.1,0.3,0.2s0.2,0.1,0.3,0.1h0.1c0.2,0.1,0.5,0.3,0.6,0.5s0.4,0.4,0.5,0.6
			l0.4-0.1L159.8,51.8z"/>
		<path class="st3" d="M155.6,51c0-0.2-0.1-0.4-0.2-0.7c-0.2-0.2-0.4-0.5-0.6-0.7c-0.3-0.2-0.6-0.4-0.9-0.6
			c-0.3-0.2-0.6-0.3-0.9-0.3l-0.5-0.7h-0.1c-0.2,0-0.3-0.1-0.4-0.1s-0.2-0.1-0.4-0.1c-0.1,0-0.3,0.1-0.6,0.3
			c-0.2,0.2-0.5,0.4-0.7,0.7c-0.2,0.3-0.4,0.5-0.6,0.8c-0.2,0.3-0.3,0.5-0.3,0.6c0.4,0.7,0.8,1.4,1.1,2.1c0.3,0.7,0.7,1.4,1.1,2
			l0.2-0.1l0.4,0.2c0.4-0.4,0.8-0.8,1.1-1.2c0.3-0.4,0.7-0.7,1.2-1l0.1,0.1c0.2-0.2,0.4-0.4,0.5-0.6C155.3,51.4,155.4,51.2,155.6,51
			z"/>
		<path class="st3" d="M158.6,52.3c-0.2-0.2-0.5-0.3-0.8-0.5c-0.3-0.1-0.5-0.3-0.8-0.4s-0.5-0.2-0.6-0.2s-0.5,0.2-0.9,0.6
			c-0.4,0.4-0.8,0.8-1.3,1.3c-0.4,0.5-0.8,1-1.1,1.5c-0.3,0.5-0.5,0.8-0.5,1c0,0.1,0.1,0.3,0.2,0.7s0.3,0.7,0.5,1.1
			c0.2,0.4,0.4,0.7,0.6,0.9c0.2,0.3,0.3,0.4,0.4,0.4c0.1,0,0.3,0,0.4-0.1c0.1-0.1,0.2-0.1,0.3-0.1h0.1c0.2-0.5,0.5-1,1-1.4
			s1-0.8,1.5-1.2c0.5-0.4,1-0.8,1.4-1.2c0.4-0.4,0.6-0.8,0.6-1.3c0-0.2-0.1-0.3-0.3-0.4l0.1-0.3C159,52.6,158.9,52.4,158.6,52.3z"/>
		<path class="st3" d="M157.5,62.1v-0.2c-0.1,0-0.1,0-0.2,0.1c-0.1,0-0.1,0.1-0.1,0.2l0.1,0.2l0.2-0.1V62.1z"/>
		<polygon class="st3" points="157.9,63 157.7,63.1 157.9,63.2 158,63.1 		"/>
		<path class="st3" d="M158.3,65.1l-0.1-0.2c-0.1-0.1-0.1-0.1-0.2-0.1c-0.1,0-0.2-0.1-0.2-0.1l-0.1,0.1l0.2,0.3
			c0.1,0,0.1,0.1,0.2,0.1C158.1,65.2,158.2,65.2,158.3,65.1L158.3,65.1z"/>
		<path class="st3" d="M157.9,60.7c-0.1,0-0.1,0.1-0.1,0.2l0.2,0.3c0-0.1,0-0.1,0.1-0.2s0.1-0.1,0.1-0.2l-0.1-0.2
			C158,60.6,158,60.6,157.9,60.7z"/>
		<path class="st3" d="M158.7,66.5c0-0.1-0.1-0.3-0.1-0.3s-0.1-0.2-0.2-0.3l-0.1,0.1c0,0.1,0,0.2,0.1,0.3
			C158.5,66.4,158.6,66.5,158.7,66.5L158.7,66.5z"/>
		<path class="st3" d="M159.2,59.5c0-0.1,0-0.1-0.1-0.1s-0.1,0-0.2,0h-0.1c-0.2,0-0.3,0.1-0.4,0.2l0.4,0.1c0.1,0,0.1,0,0.2,0
			c0,0,0.1,0,0.2,0L159.2,59.5z"/>
		<path class="st3" d="M162.2,61.9c-0.1-0.2-0.1-0.4-0.2-0.7c0-0.2-0.2-0.4-0.4-0.6c-0.3,0-0.6,0.2-0.9,0.4s-0.7,0.5-0.9,0.8
			c-0.3,0.3-0.5,0.6-0.8,1c-0.2,0.3-0.3,0.7-0.3,0.9c0.2,0.4,0.4,0.7,0.5,0.9c0.1,0.2,0.3,0.6,0.6,0.9l0.1-0.1
			c0.1-0.3,0.3-0.6,0.6-0.9c0.2-0.3,0.5-0.6,0.7-0.8c0.2-0.3,0.5-0.6,0.7-0.9C162,62.6,162.1,62.3,162.2,61.9z"/>
		<path class="st3" d="M159.1,66.2c0.1,0.1,0.1,0.3,0.2,0.4l0.1-0.3l-0.4-0.5C158.9,65.9,159,66,159.1,66.2z"/>
		<path class="st3" d="M159.8,44.7c-0.1,0.2-0.2,0.3-0.4,0.2c-0.2,0-0.3,0.1-0.4,0.2c0.1,0.1,0.1,0.2,0.2,0.4
			c0.1,0.2,0.2,0.3,0.3,0.3h0.2c0-0.2,0-0.4,0.1-0.6c0.1-0.2,0.1-0.4,0.2-0.6C160.1,44.7,159.8,44.7,159.8,44.7z"/>
		<path class="st3" d="M163.1,57.6h-0.2c-0.2,0-0.4,0.1-0.8,0.4s-0.7,0.6-1.1,0.9c-0.4,0.3-0.7,0.6-1.1,0.9s-0.6,0.4-0.7,0.4
			l-0.2,0.4l0.1,0.3l-0.1,0.2l0.2,0.3c0.2,0,0.4-0.2,0.6-0.5c0.2-0.3,0.4-0.6,0.7-0.6c0,0.1,0.1,0,0.5-0.2c0.4-0.2,0.8-0.5,1.3-0.8
			c0.5-0.3,0.9-0.7,1.3-1.1c0.4-0.4,0.6-0.8,0.6-1.2l-0.1-0.3C163.9,57,163.5,57.3,163.1,57.6z"/>
		<path class="st3" d="M159.9,68.2c-0.2-0.2-0.4-0.4-0.5-0.6l-0.1,0.1c0,0.2,0.1,0.3,0.2,0.4C159.7,68.2,159.8,68.2,159.9,68.2z"/>
		<path class="st3" d="M159.9,58.8L159.9,58.8c-0.1,0-0.1,0-0.2,0s-0.1,0-0.2,0l-0.1,0.2l0.4,0.2L160,59L159.9,58.8z"/>
		<path class="st3" d="M162.6,65.5c0-0.2,0-0.5-0.1-0.7s-0.1-0.4-0.1-0.7V64l-0.4-0.4c-0.1,0-0.3,0.1-0.5,0.4
			c-0.2,0.3-0.4,0.6-0.6,0.9c-0.2,0.3-0.4,0.7-0.6,1c-0.2,0.3-0.3,0.5-0.4,0.7c0.1,0.3,0.3,0.6,0.6,1c0.3,0.4,0.6,0.7,0.8,0.9
			c0.2,0,0.3-0.2,0.5-0.4s0.3-0.5,0.4-0.9c0.1-0.3,0.2-0.7,0.3-1C162.5,65.9,162.6,65.6,162.6,65.5z"/>
		<path class="st3" d="M164.6,53.5l-0.2-0.3c0-0.1,0.1-0.3,0.1-0.5c0-0.6-0.1-1.1-0.5-1.6c-0.3-0.5-0.5-1-0.6-1.5
			c-0.1-0.1-0.3-0.3-0.6-0.5s-0.6-0.5-1-0.8s-0.7-0.6-1-0.8c-0.3-0.2-0.5-0.4-0.6-0.4c0.3,0.4,0.5,0.7,0.8,1
			c0.2,0.3,0.4,0.5,0.6,0.8s0.3,0.6,0.5,0.9s0.3,0.7,0.4,1.2c0.1,0.4,0.3,0.7,0.7,1c0.4,0.3,0.6,0.7,0.6,1.1c0,0,0,0.1,0,0.1
			s0,0.1,0,0.1c0.2,0.3,0.4,0.6,0.4,0.9c0,0.3,0.1,0.7,0.3,1c0,0,0-0.1,0-0.1s0-0.1,0-0.1c0-0.1,0-0.3-0.1-0.4s-0.1-0.3-0.1-0.4
			c0-0.2,0.1-0.3,0.3-0.4L164.6,53.5L164.6,53.5z"/>
		<polygon class="st3" points="160.5,68.5 160.4,68.1 160.3,68.2 160.5,68.6 		"/>
		<path class="st3" d="M161.2,69.6c-0.1-0.1-0.2-0.2-0.3-0.3l-0.1,0.1l0.6,0.6l0.1-0.2C161.4,69.8,161.3,69.7,161.2,69.6z"/>
		<path class="st3" d="M162.6,70.7c0-0.1-0.1-0.2-0.3-0.3l-0.4-0.1c0.1,0.3,0.2,0.5,0.3,0.5c0,0,0.2,0.1,0.4,0.3l0.2-0.2l-0.1-0.1
			C162.7,70.9,162.6,70.9,162.6,70.7z"/>
		<path class="st3" d="M164.7,69.4c-0.1-0.5-0.1-1-0.3-1.5c-0.1-0.5-0.3-0.9-0.5-1.3c-0.2-0.4-0.4-0.7-0.7-0.9
			c-0.1,0-0.2,0.1-0.3,0.4c-0.1,0.3-0.2,0.6-0.4,0.9s-0.2,0.7-0.3,1.1c-0.1,0.4-0.1,0.7-0.1,1c0,0.2,0.1,0.4,0.3,0.6
			c0.2,0.2,0.4,0.4,0.6,0.6c0.2,0.2,0.5,0.3,0.8,0.5s0.5,0.2,0.6,0.4h0.1l-0.1-0.2l0.2,0.1l0.1-0.3
			C164.7,70.4,164.7,69.9,164.7,69.4z"/>
		<path class="st3" d="M165.5,58.2c0-0.1,0-0.2-0.1-0.4l-0.3-0.1l-0.3,0.1c0,0.1-0.1,0.1-0.2,0.2c-0.1,0-0.1,0.1-0.1,0.2
			c0,0,0,0.1,0,0.1c0,0,0,0.1,0,0.1c-0.1,0.1-0.3,0.3-0.5,0.5c-0.2,0.2-0.4,0.4-0.6,0.7s-0.4,0.5-0.6,0.7c-0.2,0.2-0.3,0.4-0.4,0.6
			c0.1,0.2,0.1,0.3,0.2,0.5c0,0.2,0.1,0.3,0.1,0.5c0,0.2-0.1,0.4-0.3,0.5c0.1,0.3,0.2,0.6,0.2,0.8s0,0.5,0.1,0.7
			c0,0.2,0.1,0.4,0.2,0.7c0.1,0.2,0.3,0.5,0.5,0.8c0.4-0.3,0.7-0.8,0.9-1.4c0.3-0.7,0.5-1.4,0.6-2.1c0.2-0.8,0.3-1.5,0.4-2.1
			c0.1-0.7,0.1-1.1,0.1-1.3L165.5,58.2L165.5,58.2z"/>
		<path class="st3" d="M174.4,31.5c-0.8,0.1-1.7,0.2-2.6,0.3c-0.9,0.1-1.6,0.4-2.3,1c0,0.1,0,0.1,0.1,0.2c0,0.1,0.1,0.1,0.1,0.2
			c0,0.3-0.1,0.6-0.4,0.8c-0.3,0.2-0.5,0.5-0.7,0.7c-0.8,1.2-1.6,2.3-2.3,3.5c-0.7,1.2-1.2,2.5-1.6,3.8c0.1,0.2,0.1,0.4,0.1,0.5
			c0,0.5-0.1,1.1-0.4,1.8c-0.2,0.7-0.4,1.2-0.6,1.8l0.5,0.1c0.4-0.4,1.1-1.1,2-2c0.9-0.9,1.9-1.9,2.9-2.9c1-1,1.9-2,2.6-2.9
			c0.8-0.9,1.2-1.6,1.2-2c0.2-0.1,0.4-0.3,0.4-0.6s0.1-0.4,0.4-0.4l-0.1-0.3c0-0.5,0.1-1,0.3-1.5c0.2-0.5,0.3-1,0.3-1.5
			c0-0.1,0-0.1,0-0.2C174.4,31.7,174.4,31.6,174.4,31.5z"/>
		<path class="st3" d="M164.6,71.9c-0.1,0-0.1,0-0.2-0.1h-0.2l-0.2,0.1L164,72c0.1,0,0.2,0.1,0.3,0.1s0.2,0.1,0.3,0.1l0.2-0.2
			C164.8,71.9,164.7,71.9,164.6,71.9z"/>
		<path class="st3" d="M166.4,70.8c-0.1-0.2-0.2-0.6-0.3-1.2c-0.1-0.6-0.2-1.1-0.3-1.8s-0.2-1.2-0.4-1.7s-0.4-0.9-0.7-1.1
			c-0.2,0-0.4,0.3-0.7,0.9l0.1,0.3l-0.1,0.1c0.3,0.6,0.5,1.2,0.5,1.8c0.1,0.6,0.2,1.2,0.4,1.8V70c0,0.3,0.1,0.5,0.2,0.8
			c0.1,0.2,0.3,0.3,0.6,0.3C165.9,71,166.1,71,166.4,70.8z"/>
		<path class="st3" d="M187.5,38.2c-0.2-0.2-0.3-0.4-0.3-0.8l-0.3-0.2l-2.6,0.2l-0.2-0.3c-0.2,0-0.3,0-0.5,0s-0.3,0-0.5,0
			c-0.4,0-1.1,0-2,0.1c-0.9,0.1-1.8,0.1-2.8,0.2s-1.9,0.2-2.7,0.3c-0.8,0.1-1.4,0.3-1.8,0.5c-0.1,0.1-0.5,0.3-0.9,0.7
			c-0.5,0.4-1.1,0.9-1.7,1.5c-0.6,0.6-1.3,1.3-2.1,2c-0.7,0.7-1.4,1.4-2.1,2c-0.7,0.7-1.2,1.2-1.7,1.8s-0.8,0.9-1,1.1
			c0,0.4,0.1,0.8,0.4,1.2l0.4,0.1c0.2,0,0.6-0.1,1.2-0.3c0.6-0.2,1.3-0.5,2-0.8c0.7-0.3,1.4-0.6,2-0.9s1.1-0.5,1.4-0.6
			c0.2-0.2,0.4-0.3,0.7-0.2c0.3,0,0.4-0.1,0.5-0.4c0.9-0.3,1.8-0.7,2.6-1.2c0.8-0.5,1.7-0.9,2.5-1.3c0.7-0.3,1.4-0.6,2.1-0.7
			s1.5-0.3,2.2-0.3s1.5-0.2,2.2-0.2s1.5-0.2,2.2-0.4c0.2-0.3,0.4-0.6,0.5-0.9c0.1-0.3,0.2-0.7,0.2-1.1c0-0.1,0-0.2,0-0.4
			C187.5,38.4,187.5,38.3,187.5,38.2z"/>
		<path class="st3" d="M165.5,62.4c0,0-0.1,0.1-0.2,0.4c-0.1,0.3-0.1,0.6-0.2,0.9c-0.1,0.3-0.1,0.6-0.2,0.8c0,0.2-0.1,0.4-0.1,0.3
			c0.3,0.3,0.6,0.8,0.8,1.5s0.4,1.3,0.5,2s0.3,1.3,0.5,1.8c0.2,0.5,0.4,0.8,0.8,0.8c0.1,0,0.1,0,0.2,0c0.1,0,0.1,0,0.2,0
			c0,0,0.1,0,0.1,0s0.1,0,0.1,0c0.1-0.2,0.2-0.3,0.4-0.4c0.2-0.1,0.3-0.2,0.3-0.4c0-0.1-0.1-0.4-0.4-1.1c-0.3-0.7-0.6-1.4-1-2.3
			c-0.4-0.8-0.7-1.7-1.1-2.5c-0.3-0.8-0.6-1.4-0.6-1.7L165.5,62.4L165.5,62.4z"/>
		<path class="st3" d="M166.1,72.2c0-0.1-0.1-0.2-0.3-0.4c-0.2-0.1-0.3-0.2-0.4-0.3v0.1c0,0.2,0.1,0.3,0.2,0.4
			C165.8,72.2,165.9,72.3,166.1,72.2L166.1,72.2z"/>
		<path class="st3" d="M178.8,66.3c0.1-0.2,0.2-0.4,0.2-0.6s-0.2-0.6-0.5-1.2c-0.4-0.6-0.8-1.2-1.2-1.9c-0.5-0.7-0.9-1.4-1.4-2
			c-0.4-0.7-0.8-1.1-0.9-1.4c-0.3-0.5-0.6-1-1.1-1.4c-0.4-0.4-0.8-0.8-1.1-1.3l-0.2,0.1c-0.2-0.1-0.6-0.3-1-0.7
			c-0.4-0.3-0.9-0.7-1.4-1c-0.5-0.3-1-0.7-1.5-0.9c-0.5-0.3-0.8-0.4-1.1-0.4h-0.1c-0.4-0.2-0.8-0.5-1-0.8h-0.9V53
			c0,0.7,0.2,1.2,0.5,1.8s0.8,1.1,1.3,1.5c0.5,0.5,1.1,0.9,1.6,1.4c0.6,0.4,1.1,0.9,1.5,1.3c0.9,0.9,1.8,1.8,2.7,2.7
			c0.8,0.9,1.6,1.9,2.2,2.9c0.3,0.5,0.6,1,0.9,1.4s0.7,0.7,1.1,0.7C177.8,66.6,178.3,66.5,178.8,66.3z"/>
		<path class="st3" d="M168.6,66c-0.3-1-0.5-2-0.8-3.2s-0.6-2.2-0.9-3.1c-0.3-1-0.7-1.6-1.1-2c-0.1,0.1-0.2,0.2-0.2,0.5
			c0,0.3-0.1,0.5-0.1,0.8c0,0.3,0,0.6,0,0.8c0,0.2,0.1,0.5,0.1,0.8c0,0,0,0.1,0,0.1s0,0.1,0,0.1c0,0.2,0,0.3,0.1,0.5
			c0.1,0.1,0.1,0.3,0.1,0.5c0,0,0,0.1,0,0.1s0,0.1,0,0.1c0.1,0.3,0.3,0.8,0.6,1.6c0.3,0.8,0.6,1.5,0.9,2.3c0.3,0.8,0.6,1.5,1,2.1
			s0.6,0.9,0.8,0.9c0.1,0,0.2-0.1,0.4-0.3c0.1-0.2,0.2-0.3,0.2-0.4v-0.1C169.2,67.7,168.9,66.9,168.6,66z"/>
		<path class="st3" d="M182,56.3c-0.1-0.6-0.3-1.1-0.6-1.5s-0.7-0.8-1.1-1.1c-0.4-0.3-0.8-0.6-1.1-0.8c-0.3-0.2-0.5-0.3-0.5-0.4
			c-0.4,0.1-0.6,0.1-0.9,0.1c-0.3,0-0.5-0.1-0.7-0.2c-0.2-0.2-0.4-0.3-0.5-0.5s-0.4-0.3-0.6-0.5c-0.2-0.2-0.5-0.2-0.8-0.2
			c-1.1,0-2.3,0.1-3.4,0.2c-1.1,0.1-2.2,0.2-3.4,0.3l-0.2-0.2l-0.4,0.2c-0.1-0.1-0.2-0.1-0.3-0.1c-0.2,0-0.3,0.1-0.5,0.1
			s-0.3,0.2-0.5,0.2l0.1,0.3l-0.2,0.1l-0.2-0.1c0.1,0.1,0.3,0.2,0.4,0.4s0.3,0.3,0.5,0.3c0.1,0,0.5,0.1,1.2,0.4
			c0.7,0.3,1.4,0.6,2.2,0.9s1.5,0.6,2.2,0.9c0.7,0.3,1.1,0.4,1.3,0.4c0.4,0.2,0.8,0.3,1.3,0.5c0.5,0.1,1,0.3,1.6,0.4
			s1.1,0.2,1.6,0.3c0.5,0.1,1,0.1,1.4,0.1c0.3,0,0.7,0,1-0.1C181.3,56.4,181.7,56.4,182,56.3z"/>
		<path class="st3" d="M167.4,71.9l-0.1-0.1c-0.1,0-0.1-0.1-0.2,0c-0.1,0-0.2,0-0.2-0.1l-0.1,0.2c0,0.1,0.1,0.2,0.2,0.2
			c0.1,0,0.3,0,0.4,0.1L167.4,71.9z"/>
		<path class="st3" d="M182.6,47.7c0-0.1-0.1-0.2-0.2-0.3c-0.1-0.1-0.2-0.1-0.3-0.1h-0.2c-0.2-0.1-0.3-0.2-0.2-0.3
			c0-0.1-0.1-0.2-0.4-0.2c-0.1,0-0.2,0-0.3,0.1l-0.2-0.3c-0.4,0.2-1,0.5-1.9,0.7c-0.9,0.2-1.8,0.3-2.8,0.5c-1,0.1-2,0.3-3,0.4
			s-1.8,0.3-2.4,0.5c-0.3,0.1-0.8,0.2-1.5,0.4s-1.4,0.4-2.1,0.7c0,0.2,0.1,0.3,0.3,0.4c0.1,0.1,0.3,0.1,0.5,0.1h0.8h0.2
			c0.1,0,0.2-0.1,0.4-0.1c0.2,0,0.4,0,0.6,0.1s0.4,0.1,0.6,0.2v-0.1c0.1,0,0.4,0,0.9-0.1c0.5-0.1,1-0.1,1.6-0.2s1.1-0.1,1.5-0.2
			c0.5-0.1,0.7-0.1,0.8-0.1c0.1-0.1,0.3-0.2,0.5-0.2l1.6-0.8c0.2,0,0.3-0.1,0.5-0.2c0.1-0.1,0.3-0.2,0.5-0.2c0.1,0,0.1,0,0.2,0.1
			c0.2-0.1,0.5-0.1,0.9-0.2c0.4-0.1,0.9-0.1,1.4-0.2c0.5-0.1,0.9-0.1,1.3-0.2C182.4,47.9,182.6,47.8,182.6,47.7z"/>
		<path class="st3" d="M168.3,71.6l-0.1-0.1c-0.1,0-0.2,0-0.3,0.1c0.1,0.1,0.1,0.1,0.2,0.1h0.1L168.3,71.6z"/>
		<path class="st3" d="M168.8,72l-0.3,0.2l0.1,0.1c0,0,0.1,0,0.1,0.1h0.1h0.1c0,0,0.1,0,0.1,0s0,0,0.1,0l0.1-0.1L168.8,72L168.8,72
			L168.8,72z"/>
		<path class="st3" d="M169.3,70.6c0,0-0.1,0.1-0.2,0.3c0,0.1,0,0.2,0.1,0.2c0.1-0.1,0.1-0.1,0.1-0.2
			C169.2,70.7,169.2,70.6,169.3,70.6z"/>
		<path class="st3" d="M174.1,27.6c-0.4,0.1-0.7,0.3-1.1,0.8s-0.5,0.8-0.5,1.2c0,0.1,0.1,0.2,0.3,0.2c0.3,0,0.6-0.2,0.9-0.5
			c0.3-0.3,0.6-0.6,0.8-0.8l0.2,0.1L174.1,27.6z"/>
		<path class="st3" d="M184.9,65.1c-0.1-0.2-0.5-0.8-1-1.5c-0.5-0.7-1-1.5-1.6-2.3c-0.6-0.8-1.1-1.5-1.7-2.1
			c-0.5-0.6-0.9-0.9-1.2-0.9c0,0-0.1,0-0.1,0.1h-0.1c-0.1-0.1-0.2-0.2-0.4-0.3s-0.2-0.3-0.2-0.5v-0.1l-1.2-0.4l-0.3,0.1
			c-0.2,0-0.3-0.1-0.5-0.2c-0.1-0.1-0.3-0.2-0.5-0.3c-0.3-0.3-0.7-0.5-1.1-0.5c-0.4,0-0.8-0.1-1.2-0.2l-0.3,0.2v0.2
			c0.4,0.3,0.9,0.9,1.5,1.7c0.6,0.8,1.2,1.7,1.8,2.7s1.2,1.9,1.8,2.8c0.6,0.9,1,1.6,1.4,2.2V66c0,0.4,0.2,0.7,0.6,0.8
			c0.4,0.1,0.7,0.2,1,0.2c0.4,0,0.7-0.1,1.1-0.2c0.4-0.1,0.6-0.2,0.7-0.2l0.1,0.1v-0.2c0.3-0.1,0.6-0.3,0.8-0.6
			C184.7,65.7,184.9,65.4,184.9,65.1z"/>
		<path class="st3" d="M187.7,34.3c0-0.7-0.1-1.4-0.2-2c-0.1-0.6-0.5-0.9-1.1-0.9c-0.4,0-0.7,0.1-1,0.2c-0.3,0.1-0.7,0.2-1,0.2
			c-1.4,0.1-2.9,0.3-4.6,0.4c-1.6,0.1-3.1,0.5-4.4,1.1c-0.3,0.1-0.5,0.4-0.6,0.9c-0.1,0.5-0.2,0.9-0.3,1.2c0,0,0.1,0.1,0.1,0.2
			c0,0.1,0,0.2,0,0.2s0,0.2,0,0.2c0,0,0,0.1,0,0.1s0,0.1,0,0.1c0,0-0.1,0.1-0.1,0.2c0,0.2,0.1,0.3,0.4,0.3c0.2,0.1,0.4,0.2,0.5,0.3
			c0.7-0.1,1.4-0.2,2.1-0.4c0.7-0.2,1.4-0.3,2.1-0.3c0.3,0,0.6,0,0.8,0.1l0.4,0.1c0.1,0,0.3,0,0.4,0s0.3,0,0.4,0c0.3,0,0.6,0,0.9,0
			s0.6,0,0.9,0c0.5,0,1-0.1,1.4-0.1s0.9-0.1,1.4-0.1c0.1,0,0.2,0,0.3,0c0.1,0,0.3,0,0.4,0.1c0.3-0.2,0.5-0.5,0.7-0.9
			C187.6,35,187.7,34.6,187.7,34.3z"/>
		<path class="st3" d="M187,30.4c0.1-0.1,0.2-0.2,0.2-0.4c0-0.2,0.1-0.4,0.1-0.5c0-0.5-0.1-1.1-0.4-1.7s-0.5-1.1-0.9-1.5h-0.4
			c-0.4,0-1,0.1-1.9,0.4c-0.9,0.3-1.8,0.6-2.8,1c-1,0.4-1.9,0.8-2.7,1.2s-1.4,0.7-1.7,1c-0.2,0.2-0.4,0.5-0.6,0.9
			c-0.2,0.4-0.3,0.7-0.3,1c0,0.4,0.1,0.6,0.3,0.7s0.4,0.1,0.6,0.1c0.3,0,0.6,0,0.9-0.1s0.6-0.2,0.9-0.3c0,0,0.1,0,0.2,0
			c0.1,0,0.1,0,0.2,0c0.2,0,0.3,0,0.5-0.1c0.1-0.1,0.3-0.1,0.5-0.1h0.1c0.6-0.4,1.3-0.6,2.2-0.6c0.4,0,0.7,0,0.9,0.1
			c0.2-0.2,0.5-0.3,0.9-0.3c0.2,0,0.6,0,0.9,0.1l0.1-0.1h0.3c0.4,0,0.7-0.1,0.9-0.2c0.2-0.1,0.6-0.2,1-0.2h0.2L187,30.4z"/>
		<path class="st3" d="M178.5,26.2c0-0.4-0.2-0.7-0.4-1c-0.2,0.1-0.5,0.3-0.9,0.5c-0.4,0.2-0.7,0.4-0.7,0.7c0,0.2,0.1,0.3,0.2,0.5
			s0.3,0.2,0.5,0.3c0.1-0.3,0.4-0.5,0.7-0.5C178.1,26.6,178.3,26.5,178.5,26.2z"/>
		<path class="st3" d="M178,45.9c-0.1-0.2-0.2-0.3-0.3-0.3c-0.2,0-0.3,0.1-0.4,0.3s-0.2,0.3-0.4,0.4c0.1,0.1,0.3,0.2,0.6,0.3
			c0.1-0.1,0.2-0.2,0.2-0.3C177.8,46.1,177.8,46,178,45.9z"/>
		<path class="st3" d="M188.2,52.2c0,0,0-0.1,0.1-0.2c0-0.1,0.1-0.1,0.1-0.2c0-0.2-0.1-0.3-0.2-0.5S188,51.1,188,51c0,0,0-0.1,0-0.1
			c0,0,0,0,0-0.1c-0.5-0.6-0.9-1.1-1.2-1.5c-0.3-0.4-0.9-0.6-1.8-0.6c-0.4,0-1,0-1.9,0.1c-0.9,0-1.8,0.1-2.7,0.2
			c-0.9,0.1-1.7,0.3-2.4,0.5c-0.7,0.2-1.1,0.5-1.1,0.8s0.1,0.6,0.4,0.9c0.2,0.2,0.5,0.5,0.9,0.6s0.7,0.3,1.1,0.4
			c0.4,0.1,0.7,0.1,1,0.1c0.9,0,1.9,0,2.8-0.1c0.9-0.1,1.8-0.1,2.8-0.1c0.4,0,0.8,0,1.1,0C187.5,52.1,187.8,52.2,188.2,52.2z"/>
		<path class="st3" d="M179.8,67.4l-0.3-0.2c-0.2,0-0.4,0.1-0.5,0.3l0.3,0.1c0.1,0,0.1,0,0.2,0c0.1,0,0.1,0,0.2,0L179.8,67.4
			L179.8,67.4L179.8,67.4z"/>
		<path class="st3" d="M180.6,45c-0.5,0.2-0.9,0.5-1.3,0.9c0.1,0.2,0.2,0.3,0.4,0.3c0.1-0.2,0.3-0.3,0.6-0.4
			c0.2-0.1,0.4-0.3,0.5-0.5L180.6,45z"/>
		<path class="st3" d="M187.9,63.3c-0.2-0.3-0.4-0.6-0.7-0.8c-0.2-0.2-0.6-0.4-0.9-0.5c-0.6-0.7-1.3-1.4-2.1-2.1
			c-0.7-0.7-1.4-1.4-1.9-2.2h-0.3c-0.1-0.1-0.2-0.2-0.2-0.3h-0.4c-0.1,0-0.2,0-0.3-0.1H181c-0.2,0-0.3,0-0.5,0s-0.3,0-0.5,0
			c-0.2,0-0.5,0.1-0.7,0.2h0.3c0.3,0.4,0.8,0.9,1.4,1.7c0.6,0.8,1.2,1.5,1.8,2.3c0.6,0.8,1.2,1.5,1.8,2.1c0.6,0.7,1,1,1.4,1.2
			c0.4-0.1,0.8-0.3,1.2-0.5C187.6,64.2,187.9,63.8,187.9,63.3z"/>
		<path class="st3" d="M182,23.5c0-0.2-0.1-0.3-0.2-0.4c-0.1-0.1-0.3-0.1-0.5-0.1c-0.3,0-0.7,0.1-1,0.3c-0.4,0.2-0.5,0.5-0.5,0.9
			c0,0.3,0.2,0.5,0.5,0.5c0.1,0,0.3,0,0.4-0.1c0.1,0,0.3-0.1,0.4-0.1c0.1,0,0.2,0,0.3,0.1c0.2-0.1,0.4-0.2,0.5-0.4
			C181.9,23.9,182,23.7,182,23.5z"/>
		<path class="st3" d="M180.4,25.7c-0.2,0-0.3,0.1-0.4,0.2c-0.1,0.1-0.2,0.2-0.2,0.3c0.1,0.1,0.2,0.2,0.3,0.3s0.2,0.2,0.3,0.2h0.1
			c0-0.1,0.1-0.1,0.2-0.2c0.1,0,0.2-0.1,0.2-0.2L180.4,25.7L180.4,25.7L180.4,25.7z"/>
		<path class="st3" d="M182,68.2c0-0.2-0.1-0.3-0.2-0.3s-0.2,0-0.3,0h-0.3c-0.2,0-0.3,0-0.4,0.1c0.2,0,0.3,0.1,0.5,0.2
			c0.1,0.1,0.3,0.2,0.5,0.2h0.1L182,68.2L182,68.2z"/>
		<path class="st3" d="M190.4,55.9c0-0.3,0-0.6-0.1-0.9c0-0.3-0.1-0.6-0.3-0.9c0,0,0-0.1,0-0.1s0-0.1,0-0.1c0-0.2-0.1-0.3-0.2-0.5
			s-0.2-0.3-0.3-0.5c-0.8-0.1-1.6-0.1-2.4-0.2c-0.8-0.1-1.6-0.1-2.4-0.1c-0.6,0-1.1,0-1.7,0.1s-1.1,0.1-1.6,0.2l0.1,0.9h0.2l1.7,1.7
			c1,0.1,1.9,0.4,2.9,0.7c0.9,0.3,1.9,0.5,2.9,0.5c0.5,0,0.9-0.1,1.2-0.3L190.4,55.9L190.4,55.9z"/>
		<path class="st3" d="M184.1,56.1c-0.3,0-0.6,0.1-1,0.1c-0.3,0.1-0.5,0.3-0.5,0.8c0,0.3,0,0.6,0.1,0.7c0.1,0.1,0.2,0.3,0.3,0.4
			c0.1,0.1,0.3,0.2,0.4,0.3c0.1,0.1,0.2,0.3,0.3,0.5c0.2,0.2,0.6,0.5,1.1,0.9s1.1,0.9,1.6,1.3c0.6,0.4,1.1,0.8,1.6,1.2
			c0.5,0.4,0.8,0.6,1,0.7v-0.2l0.2-0.2l0.1,0.2c0.1-0.1,0.3-0.2,0.4-0.5c0.1-0.3,0.2-0.6,0.4-0.9s0.2-0.7,0.3-1s0.1-0.6,0.1-0.7
			c0-0.7-0.2-1.2-0.5-1.4c-0.3-0.2-0.8-0.4-1.3-0.5s-1.1-0.2-1.8-0.4s-1.4-0.4-2.1-0.9c-0.1-0.1-0.3-0.2-0.4-0.3
			C184.5,56.2,184.3,56.1,184.1,56.1z"/>
		<path class="st3" d="M183.6,45.4c-0.2,0-0.3,0-0.5,0.1s-0.3,0.1-0.4,0.1c0.1,0.3,0.2,0.4,0.4,0.4c0.1,0,0.2,0,0.3-0.1
			c0.1,0,0.1-0.1,0.2-0.1c0.1,0,0.2,0,0.3,0.1l0.1-0.3C184,45.5,183.9,45.4,183.6,45.4z"/>
		<path class="st3" d="M187.8,20.7c0-0.2-0.1-0.3-0.3-0.4c-0.2-0.1-0.3-0.1-0.5-0.1c-0.4,0-0.6,0.1-0.8,0.3h-0.1
			c-0.2,0-0.4,0.1-0.8,0.3s-0.6,0.4-1,0.6c-0.3,0.2-0.6,0.4-0.9,0.6c-0.2,0.2-0.4,0.3-0.4,0.3l0.4,0.5h0.3c0.3,0,0.6-0.1,0.8-0.2
			c0.2-0.1,0.4-0.2,0.6-0.2h0.1c0.1-0.1,0.3-0.2,0.5-0.4c0.2-0.1,0.5-0.3,0.8-0.4s0.5-0.3,0.7-0.5C187.7,21,187.8,20.8,187.8,20.7z"
			/>
		<path class="st3" d="M184.8,68.7c0,0-0.1-0.1-0.3-0.2c-0.2,0-0.3,0.1-0.4,0.2c-0.1,0.1-0.2,0.2-0.4,0.3l0.2,0.3
			C184.2,69.2,184.5,69.1,184.8,68.7z"/>
		<path class="st3" d="M184.7,67.3c-0.4,0-0.6,0.1-0.6,0.4l0.3,0.2c0.1-0.1,0.2-0.1,0.3-0.2s0.2-0.2,0.2-0.3v-0.1L184.7,67.3
			L184.7,67.3z"/>
		<path class="st3" d="M188.6,23.1v-0.2c0-0.1,0-0.2-0.1-0.2c-0.3,0.1-0.6,0.2-0.9,0.2c-0.3,0-0.7,0.1-1,0.1
			c-0.3,0.1-0.6,0.1-0.9,0.2c-0.3,0.1-0.6,0.3-0.8,0.6c0.1,0.1,0.2,0.3,0.2,0.5c0,0.2,0.2,0.3,0.4,0.3c0.2,0,0.4-0.1,0.7-0.2
			c0.3-0.1,0.6-0.3,0.9-0.5c0.3-0.2,0.6-0.3,0.9-0.5C188.2,23.3,188.4,23.2,188.6,23.1L188.6,23.1L188.6,23.1z"/>
		<path class="st3" d="M186.3,45.8c-0.1,0.1-0.2,0.1-0.4,0.1l-0.1,0.1V46c0,0.1,0.1,0.1,0.2,0.2c0.1,0,0.2,0.1,0.3,0.2
			c0.1,0,0.2-0.1,0.4-0.2c0.2-0.1,0.2-0.2,0.2-0.3l-0.3-0.3C186.5,45.7,186.4,45.7,186.3,45.8z"/>
		<path class="st3" d="M186.8,66.1c-0.1-0.1-0.2-0.1-0.2-0.1c0,0.2-0.1,0.3-0.2,0.4s-0.2,0.2-0.4,0.3l-0.1,0.1
			c0,0.1,0.1,0.2,0.2,0.2s0.3,0.1,0.4,0.2c0.1-0.2,0.2-0.3,0.3-0.5c0.1-0.1,0.2-0.3,0.2-0.5v-0.1C187,66.2,186.9,66.1,186.8,66.1z"
			/>
		<path class="st3" d="M187.2,47.3c-0.1,0-0.2,0.1-0.3,0.2c0.1,0.2,0.2,0.3,0.3,0.3c0.2,0,0.4-0.1,0.4-0.4v-0.1l-0.1-0.2
			C187.5,47.3,187.4,47.3,187.2,47.3z"/>
		<path class="st3" d="M189.1,25.1c-0.3,0-0.6,0.1-0.9,0.2c-0.3,0.2-0.4,0.3-0.4,0.6c0,0.1,0,0.3,0.1,0.4c0.1,0.1,0.2,0.2,0.2,0.3
			l-0.2,0.1l0.3,0.4c0.4-0.1,0.8-0.3,1.1-0.6c0.3-0.3,0.5-0.6,0.5-0.9c0-0.2-0.1-0.3-0.2-0.4C189.4,25.2,189.3,25.1,189.1,25.1z"/>
		<path class="st3" d="M189.5,29.7c0-0.2-0.1-0.3-0.2-0.5c-0.1-0.1-0.2-0.3-0.3-0.5c-0.1,0-0.3,0.1-0.4,0.2
			c-0.1,0.1-0.2,0.2-0.2,0.3c0.1,0.2,0.1,0.4,0.1,0.5c0,0.2,0.2,0.3,0.5,0.3C189.2,29.9,189.4,29.9,189.5,29.7z"/>
		<path class="st3" d="M189.4,17.7c-0.1,0-0.3,0.1-0.5,0.3c-0.2,0.2-0.4,0.3-0.4,0.5c0.1,0.1,0.3,0.2,0.5,0.2h0.1
			c0.1-0.1,0.2-0.2,0.4-0.1c0.2,0,0.3-0.1,0.3-0.2c0-0.1,0-0.2-0.1-0.3C189.6,17.8,189.5,17.7,189.4,17.7z"/>
		<path class="st3" d="M188.9,31.3c-0.2,0.1-0.2,0.3-0.2,0.5c0,0.2,0,0.4-0.2,0.5c0.2,0,0.4-0.1,0.6-0.1c0.2,0,0.3-0.2,0.3-0.4
			c0-0.2-0.1-0.3-0.2-0.3C189.1,31.5,189,31.4,188.9,31.3z"/>
		<path class="st3" d="M189.4,64.8c-0.1-0.1-0.2-0.2-0.3-0.3s-0.2-0.1-0.3-0.2c0,0.2-0.1,0.5-0.1,0.7c-0.1,0.2-0.1,0.4-0.1,0.7
			l0.4,0.2c0.1-0.2,0.1-0.3,0.2-0.5C189.2,65.1,189.3,65,189.4,64.8z"/>
		<path class="st3" d="M189.6,38.1c-0.1-0.1-0.2-0.2-0.4-0.2c-0.3,0.2-0.5,0.5-0.5,0.9c0.1,0.1,0.1,0.1,0.2,0.2
			c0.1,0.1,0.1,0.1,0.2,0.2l-0.1-0.2c0.1-0.1,0.3-0.2,0.5-0.2c0.2,0,0.3-0.1,0.3-0.3v-0.1C189.7,38.3,189.6,38.2,189.6,38.1z"/>
		<path class="st3" d="M189.5,34.8L189.5,34.8L189,35c-0.1,0.1-0.2,0.2-0.2,0.4v0.5c0,0.1,0.1,0.2,0.2,0.2c0.2,0.1,0.3,0.1,0.4,0.1
			c0.1-0.1,0.1-0.2,0.2-0.2c0-0.1,0.1-0.2,0.2-0.2L189.5,34.8z"/>
		<path class="st3" d="M190.4,20.2c0-0.1-0.1-0.3-0.1-0.3c-0.1-0.1-0.1-0.2-0.1-0.3h-0.1c-0.1,0-0.3,0.1-0.4,0.1
			c-0.1,0.1-0.2,0.2-0.3,0.2V20c0,0.1,0,0.2,0.1,0.3c0.1,0.1,0.1,0.2,0.2,0.3c0.1,0,0.3-0.1,0.4-0.1S190.3,20.3,190.4,20.2
			L190.4,20.2L190.4,20.2z"/>
		<path class="st3" d="M190.4,49.3c-0.1-0.1-0.1-0.2-0.1-0.3c0-0.1-0.1-0.2-0.2-0.3c-0.1,0.1-0.2,0.2-0.3,0.3
			c-0.1,0.1-0.2,0.2-0.3,0.3v0.1c0,0.1,0.1,0.2,0.1,0.2c0.1,0,0.1,0.1,0.2,0.2h0.1c0.2,0,0.3-0.1,0.3-0.2
			C190.2,49.5,190.3,49.4,190.4,49.3z"/>
		<path class="st3" d="M190.3,32.2c0-0.2-0.1-0.3-0.2-0.4c0,0.2-0.1,0.3-0.1,0.5c-0.1,0.1-0.1,0.3-0.1,0.5l0.2,0.2v-0.1
			C190.2,32.6,190.3,32.4,190.3,32.2z"/>
		<path class="st3" d="M190.7,52.2c-0.2-0.1-0.4-0.3-0.4-0.6c-0.1-0.2-0.2-0.4-0.4-0.6c0,0.3,0.1,0.5,0.1,0.7c0,0.1,0,0.2,0.1,0.3
			c0,0.1,0.1,0.1,0.2,0.2c0.1,0,0.2,0.1,0.5,0.2L190.7,52.2L190.7,52.2z"/>
		<path class="st3" d="M190.5,34.6l-0.1-0.2l-0.4,0.2c0.1,0,0.1,0,0.2,0.1c0.1,0.1,0.1,0.1,0.2,0.1l0.1-0.1L190.5,34.6L190.5,34.6z"
			/>
		<path class="st3" d="M191.6,62.9l-0.3-0.2c-0.6,0.1-0.9,0.4-1,1c0.1,0.1,0.1,0.1,0.2,0.2c0.1,0.1,0.1,0.1,0.2,0.1
			c0.2,0,0.3-0.1,0.4-0.4c0.1-0.3,0.3-0.5,0.5-0.5L191.6,62.9L191.6,62.9z"/>
		<path class="st3" d="M190.8,29.7c-0.1,0-0.2,0-0.3,0.1c-0.1,0-0.2,0.1-0.2,0.2l0.3,0.3c0.2,0,0.3-0.1,0.3-0.3v-0.2L190.8,29.7
			L190.8,29.7z"/>
		<path class="st3" d="M190.8,27.5c-0.1,0.1-0.1,0.1-0.2,0.2c-0.1,0.1-0.1,0.2-0.1,0.3v0.2h0.2c0.1,0,0.1,0,0.2-0.1
			c0-0.1,0.1-0.1,0.1-0.2L190.8,27.5z"/>
		<path class="st3" d="M190.9,35.7c-0.1,0.1-0.1,0.2-0.2,0.3c-0.1,0.1-0.1,0.2-0.1,0.3v0.2c0.1,0,0.1,0,0.2,0c0.1,0,0.2,0,0.2,0
			l0.2-0.2c0-0.1,0-0.2-0.1-0.4C191.2,35.7,191.1,35.7,190.9,35.7L190.9,35.7L190.9,35.7z"/>
		<polygon class="st3" points="191,37.9 190.8,37.6 190.7,37.8 191,38 		"/>
		<path class="st3" d="M191.4,51c-0.1-0.2-0.2-0.4-0.5-0.4c0.2,0.1,0.3,0.3,0.3,0.7c0,0.3,0.1,0.4,0.4,0.4h0.1
			C191.6,51.4,191.5,51.2,191.4,51z"/>
		<path class="st3" d="M191.9,55.4c-0.1-0.1-0.2-0.2-0.3-0.3c-0.1-0.1-0.2-0.1-0.4-0.1c0,0.1,0.1,0.3,0.1,0.5s0.2,0.3,0.4,0.3
			c0,0,0.1,0,0.1,0s0.1,0,0.1,0L191.9,55.4z"/>
		<path class="st3" d="M192.5,58.9c-0.2,0-0.3,0.1-0.5,0.4c-0.1,0.3-0.2,0.5-0.2,0.6c0,0.2,0.1,0.3,0.2,0.3c0,0.1,0,0.1-0.1,0.2
			c-0.1,0.1-0.1,0.1-0.1,0.2l0.1,0.1c0.2,0,0.5-0.1,0.7-0.3c0.2-0.2,0.3-0.4,0.3-0.7c0-0.1-0.1-0.3-0.1-0.5
			C192.7,59,192.6,58.9,192.5,58.9z"/>
		<path class="st3" d="M192.8,54c-0.1-0.1-0.1-0.2-0.2-0.4s-0.2-0.3-0.4-0.3l-0.2,0.1c0.1,0.4,0.1,0.6,0.1,0.8c0,0.1,0,0.3-0.1,0.5
			c0.2-0.1,0.3-0.2,0.4-0.3C192.6,54.2,192.7,54,192.8,54z"/>
		<path class="st3" d="M192.3,56.7l-0.2,1.2c0.2,0.1,0.4,0.1,0.5,0.1c0.2,0,0.3-0.1,0.3-0.3c0-0.1,0-0.4-0.1-0.7s-0.2-0.4-0.4-0.4
			L192.3,56.7z"/>
	</g>
</g>
</svg>
